PathFileType	4	(X/Y/Z)	./resultDataOpenSim/trcMotMarkerGrf/sub10/qtm-05-05.trc
DataRate	CameraRate	NumFrames	NumMarkers	Units	OrigDataRate	OrigDataStartFrame	OrigNumFrames
250.000000	250.000000	7	24	m	250.000000	259	517
Frame#	Time	L.Toe.Tip			R.Toe.Tip			L.Ankle.Lat			R.Ankle.Lat			L.Ankle.Med			R.Ankle.Med			L.Heel			R.Heel			L.Knee.Lat			R.Knee.Lat			L.Knee.Med			R.Knee.Med			L.Thigh.Upper			R.Thigh.Upper			L.ASIS			R.ASIS			V.Sacral			L.Acromium			R.Acromium			C7			L.Elbow			R.Elbow			L.Wrist.Lat			R.Wrist.Lat
		X1	Y1	Z1	X2	Y2	Z2	X3	Y3	Z3	X4	Y4	Z4	X5	Y5	Z5	X6	Y6	Z6	X7	Y7	Z7	X8	Y8	Z8	X9	Y9	Z9	X10	Y10	Z10	X11	Y11	Z11	X12	Y12	Z12	X13	Y13	Z13	X14	Y14	Z14	X15	Y15	Z15	X16	Y16	Z16	X17	Y17	Z17	X18	Y18	Z18	X19	Y19	Z19	X20	Y20	Z20	X21	Y21	Z21	X22	Y22	Z22	X23	Y23	Z23	X24	Y24	Z24

259	1.032	0.0047204832	-0.056758285	-0.09497595	0.22943672	0.094158192	0.074659984	-0.11751189	-0.0020289622	-0.14858421	0.10015223	0.15597716	0.059862907	-0.11799265	0.02408545	-0.070097953	0.15795422	0.16812222	-0.0085861905	-0.18922857	-0.015134401	-0.11393415	0.066104348	0.14131625	-0.003449899	-0.039719371	0.38057649	-0.17993182	0.26846726	0.50022515	0.11950816	-0.044556445	0.35929426	-0.058883442	0.31573903	0.51801583	-0.0034892831	0.013118775	0.77493039	-0.23403202	0.013068421	0.80601197	0.14694283	0.078541223	0.88186117	-0.16777613	0.077579004	0.89343489	0.071368468	-0.12255069	0.91007496	-0.0410574	0.07794419	1.3472549	-0.20507458	0.046817804	1.364742	0.11230613	-0.014212086	1.3876143	-0.063311212	0.023441904	1.0139682	-0.27684407	-0.11877741	1.0646546	0.16366224	0.25438572	0.86905207	-0.28663643	-0.089541559	0.84983151	0.27655957
260	1.036	0.0046043877	-0.056734754	-0.094955178	0.25055791	0.094128677	0.07553976	-0.11749797	-0.001837458	-0.14860995	0.119424	0.15151364	0.059876639	-0.11785102	0.024246745	-0.069736816	0.17692728	0.16523035	-0.0084363201	-0.1892817	-0.014940719	-0.11328541	0.086357828	0.13554169	-0.0038549562	-0.039802491	0.38060636	-0.17990942	0.27666577	0.50253122	0.1190516	-0.044235148	0.35915359	-0.058649921	0.32277975	0.52107483	-0.003880245	0.015163496	0.77493686	-0.23408195	0.019391823	0.80689295	0.14733484	0.081454526	0.88178832	-0.16853341	0.082759839	0.89344403	0.070720646	-0.11863529	0.91042561	-0.038878929	0.082740472	1.3471169	-0.20490727	0.052962897	1.364356	0.11247161	-0.0086186601	1.3873837	-0.062820457	0.032096803	1.0130541	-0.27756512	-0.11580444	1.0661556	0.16345051	0.2643256	0.87204882	-0.28511992	-0.088883435	0.85114731	0.27655097
261	1.04	0.0044512688	-0.056711448	-0.094910606	0.27170602	0.094161507	0.076344112	-0.11750616	-0.0016784339	-0.14860725	0.13876948	0.14709923	0.060056568	-0.11775212	0.024370371	-0.069276353	0.19602536	0.16246456	-0.008201699	-0.1893715	-0.014776515	-0.11257202	0.10663787	0.12996949	-0.0041061029	-0.039788364	0.38057438	-0.1798391	0.28469935	0.50463587	0.11850138	-0.044007181	0.35889963	-0.058127285	0.32966631	0.52382878	-0.0042349606	0.01723106	0.77488185	-0.23414667	0.025617116	0.80765555	0.14768682	0.084363971	0.88160029	-0.16926573	0.087990811	0.89335689	0.070122305	-0.11427098	0.9103514	-0.037160773	0.087548579	1.346864	-0.20474444	0.059094483	1.3638562	0.11263218	-0.003038534	1.3870447	-0.062317669	0.039735628	1.0122458	-0.2776977	-0.11281479	1.0675469	0.16323334	0.27420007	0.87501043	-0.28358514	-0.088222308	0.85239699	0.27653422
262	1.044	0.0043325004	-0.056667708	-0.094915124	0.29284823	0.094253662	0.077068662	-0.11760638	-0.0015620502	-0.14841136	0.15826653	0.14275903	0.060251549	-0.11766424	0.024484108	-0.068687875	0.21522546	0.15988059	-0.0078892403	-0.18950645	-0.014643399	-0.1117927	0.12694062	0.12458701	-0.0041258944	-0.039686994	0.38046971	-0.17969993	0.29252521	0.50652687	0.11785611	-0.043742425	0.35857671	-0.057534621	0.33640139	0.52626534	-0.0045565252	0.019335715	0.77476243	-0.2342032	0.031625244	0.80824927	0.14793282	0.087215449	0.88128366	-0.17001369	0.093240255	0.89316563	0.06955448	-0.10978669	0.90998017	-0.035687718	0.092380346	1.3464863	-0.20459124	0.065218967	1.3632485	0.112785	0.0025226049	1.3865933	-0.061786841	0.046239381	1.0115895	-0.27715176	-0.10983506	1.06882	0.16295885	0.28400943	0.87793472	-0.28202335	-0.087506997	0.85358711	0.27651317
263	1.048	0.0042751312	-0.056610813	-0.094980058	0.3139459	0.094407004	0.077710442	-0.11781736	-0.0014920657	-0.1479937	0.17796066	0.13853911	0.06035619	-0.1175902	0.024595681	-0.067974852	0.23447237	0.15748474	-0.0075361772	-0.18967857	-0.014549465	-0.11094016	0.14728275	0.11941279	-0.0039506978	-0.039481351	0.38028519	-0.17949694	0.30009695	0.50815881	0.11718459	-0.043272001	0.35824481	-0.057140375	0.342974	0.52837647	-0.0048515141	0.02148119	0.77456613	-0.23423613	0.03734668	0.80863904	0.14803056	0.089974301	0.88082918	-0.17080699	0.098501754	0.89287583	0.069017989	-0.10532387	0.90946341	-0.034310827	0.097252253	1.3459796	-0.20445157	0.071347551	1.3625273	0.11293115	0.0080706044	1.3860315	-0.06123444	0.052012478	1.0109865	-0.27613536	-0.10682381	1.069973	0.16260629	0.29373992	0.88081063	-0.28043631	-0.086722472	0.85472106	0.27649416
264	1.052	0.0042402229	-0.056567345	-0.095044202	0.33497327	0.094617083	0.078255495	-0.11813301	-0.0014639948	-0.14742498	0.19781736	0.13447899	0.060445184	-0.11753309	0.024678287	-0.067192031	0.25369865	0.1552604	-0.0071699371	-0.18987002	-0.014498463	-0.11000634	0.16767474	0.11447906	-0.0036679686	-0.039154851	0.38001764	-0.17924261	0.30740108	0.50948207	0.1165626	-0.042512335	0.35792291	-0.057016329	0.34937644	0.53015594	-0.005122583	0.023670455	0.77427569	-0.23423057	0.04289754	0.80885516	0.14803172	0.092703766	0.88026338	-0.17160154	0.1037786	0.89249557	0.068518743	-0.10091512	0.90891791	-0.032953852	0.1021698	1.3453513	-0.20432794	0.077480003	1.3616822	0.11307341	0.013631166	1.3853614	-0.0607095	0.057402714	1.0103484	-0.27480622	-0.10367175	1.0710044	0.16214666	0.30338326	0.88362624	-0.27882991	-0.085867003	0.85578971	0.27648257
265	1.056	0.0041828798	-0.056554919	-0.095048277	0.35591364	0.094875155	0.078675846	-0.11855387	-0.0014784053	-0.14677401	0.21775931	0.13060132	0.060625508	-0.11748292	0.02469642	-0.066396675	0.27284272	0.15319806	-0.0067934379	-0.19006473	-0.014489334	-0.10899284	0.18808552	0.10981335	-0.003324706	-0.038696555	0.37967212	-0.17894156	0.31447928	0.51047056	0.11601112	-0.041505378	0.35757617	-0.057009869	0.35561771	0.5315943	-0.0053734692	0.025899899	0.77387558	-0.23416947	0.048650526	0.80900951	0.14811662	0.095546147	0.87964555	-0.17229275	0.10907784	0.8920263	0.068053988	-0.096520596	0.90839735	-0.031596876	0.10711725	1.3446166	-0.20422383	0.083604151	1.3607107	0.11321174	0.019237897	1.384585	-0.060283411	0.06257163	1.0096396	-0.27321748	-0.10028486	1.0719121	0.16155122	0.31294602	0.88637914	-0.27720615	-0.084921833	0.85677446	0.27647672
